<svg xmlns="http://www.w3.org/2000/svg" id="Calque_3_-_copie_2" data-name="Calque 3 - copie 2" viewBox="30.08 449.01 1019.84 181.97">
  <path d="M30.08,629.72v-179.45h70.27c59.4,0,89.1,28.28,89.1,84.83,0,63.08-29.7,94.62-89.1,94.62H30.08ZM100.35,600.86c37.23,0,55.84-21.92,55.84-65.76,0-37.31-18.62-55.97-55.84-55.97h-37.02v121.72h37.02Z"/>
  <path d="M217.68,559.2v-108.92h33.25v108.92c0,28.61,14.64,42.92,43.92,42.92s43.92-14.31,43.92-42.92v-108.92h33.25v108.92c0,47.85-25.72,71.78-77.17,71.78s-77.18-23.93-77.18-71.78Z"/>
  <path d="M406.54,622.19v-30.12c17.99,6.69,38.32,10.04,60.99,10.04,27.52,0,41.29-9.2,41.29-27.61,0-13.38-8.45-20.08-25.35-20.08h-28.11c-36.73,0-55.09-16.73-55.09-50.2,0-36.81,26.14-55.21,78.43-55.21,20.08,0,39.11,2.93,57.1,8.78v30.12c-17.99-6.69-37.02-10.04-57.1-10.04-30.12,0-45.18,8.78-45.18,26.35,0,13.39,7.28,20.08,21.83,20.08h28.11c39.07,0,58.6,16.73,58.6,50.2,0,37.65-24.85,56.47-74.54,56.47-22.67,0-43-2.93-60.99-8.78Z"/>
  <path d="M588.97,629.72h-34.09l76.07-179.6h35.71l77.7,179.6h-35.71l-20.43-48.98h-59.52l11.4-28.89h36.09l-28.2-67.45-59.02,145.32Z"/>
  <path d="M766.32,629.47v-179.2h81.57c36.64,0,54.96,16.02,54.96,48.06,0,21.67-14.26,39.61-42.79,53.83l56.85,77.55h-41.91l-54.59-78.18v-15.18c31.79-5.44,47.69-17.78,47.69-37.02,0-13.22-7.45-19.83-22.34-19.83h-45.55v149.96h-33.88Z"/>
  <path d="M1049.92,450.28v28.86h-51.45v150.59h-33.25v-150.59h-51.45v-28.86h136.15Z"/>
</svg>